<?xml version="1.0" encoding="UTF-8"?>
<svg version="1.1" xmlns="http://www.w3.org/2000/svg" width="355" height="81">
<path d="M0 0 C117.15 0 234.3 0 355 0 C355 26.73 355 53.46 355 81 C237.85 81 120.7 81 0 81 C0 54.27 0 27.54 0 0 Z " fill="currentColor" transform="translate(0,0)"/>
<path d="M0 0 C2.70942393 -0.10861833 5.414439 -0.18758577 8.125 -0.25 C8.88554688 -0.28351562 9.64609375 -0.31703125 10.4296875 -0.3515625 C15.80312936 -0.44420805 18.70994272 0.4792843 23 4 C25.53722054 6.53722054 25.38319839 7.65911809 25.5 11.1875 C25.42410444 16.43809275 24.21704167 19.03031255 20.60546875 22.7578125 C16.78436223 25.71428908 12.38671216 25.11443429 7.8125 25.0625 C7.06291016 25.05798828 6.31332031 25.05347656 5.54101562 25.04882812 C3.69397617 25.03706354 1.84697787 25.01912865 0 25 C0.66 24.34 1.32 23.68 2 23 C2.37051993 20.6754661 2.37051993 20.6754661 2.4140625 17.9921875 C2.45273438 17.00605469 2.49140625 16.01992188 2.53125 15.00390625 C2.5621875 13.97136719 2.593125 12.93882813 2.625 11.875 C2.66367188 10.83472656 2.70234375 9.79445313 2.7421875 8.72265625 C2.83664766 6.14861689 2.92221214 3.57458845 3 1 C2.01 0.67 1.02 0.34 0 0 Z " fill="#061315" transform="translate(92,27)"/>
<path d="M0 0 C1.73443359 0.00966797 1.73443359 0.00966797 3.50390625 0.01953125 C6.4375 0.1875 6.4375 0.1875 8.4375 1.1875 C8.4375 3.4975 8.4375 5.8075 8.4375 8.1875 C7.4475 8.5175 6.4575 8.8475 5.4375 9.1875 C5.1075 9.8475 4.7775 10.5075 4.4375 11.1875 C3.4475 11.1875 2.4575 11.1875 1.4375 11.1875 C1.4375 11.8475 1.4375 12.5075 1.4375 13.1875 C4.4075 13.1875 7.3775 13.1875 10.4375 13.1875 C9.4475 13.6825 9.4475 13.6825 8.4375 14.1875 C8.4375 17.4875 8.4375 20.7875 8.4375 24.1875 C4.29422976 26.1963583 1.02211644 26.58965934 -3.5625 26.1875 C-8.19244259 24.46261943 -11.18972164 22.56801389 -13.5625 18.1875 C-14.33016522 12.98617646 -14.46367469 8.71017447 -11.75 4.125 C-7.6418729 0.48637314 -5.41417686 -0.06654296 0 0 Z " fill="#050B0D" transform="translate(285.5625,26.8125)"/>
<path d="M0 0 C0.90105469 0.02707031 1.80210938 0.05414062 2.73046875 0.08203125 C3.76107422 0.13423828 3.76107422 0.13423828 4.8125 0.1875 C4.8125 2.1675 4.8125 4.1475 4.8125 6.1875 C4.27625 5.5275 3.74 4.8675 3.1875 4.1875 C0.91291408 1.87725201 0.91291408 1.87725201 -2.4375 1.9375 C-3.345 2.02 -4.2525 2.1025 -5.1875 2.1875 C-4.80239733 4.99324806 -4.54499709 6.7542505 -3.1875 9.1875 C-1.10737113 10.51378594 -1.10737113 10.51378594 1.3125 11.5625 C5.53890705 13.57733611 5.53890705 13.57733611 6.84765625 16.49609375 C7.32014781 18.7395537 7.65809482 20.9013072 7.8125 23.1875 C6.8225 23.5175 5.8325 23.8475 4.8125 24.1875 C6.06791557 26.69833114 7.31313488 27.05875446 9.8125 28.1875 C8.4925 29.5075 7.1725 30.8275 5.8125 32.1875 C5.8125 31.1975 5.8125 30.2075 5.8125 29.1875 C4.1625 29.1875 2.5125 29.1875 0.8125 29.1875 C0.8125 28.5275 0.8125 27.8675 0.8125 27.1875 C-0.25291016 27.09662109 -0.25291016 27.09662109 -1.33984375 27.00390625 C-2.25894531 26.92011719 -3.17804687 26.83632813 -4.125 26.75 C-5.49978516 26.62818359 -5.49978516 26.62818359 -6.90234375 26.50390625 C-9.1875 26.1875 -9.1875 26.1875 -10.1875 25.1875 C-10.4375 22.25 -10.4375 22.25 -10.1875 19.1875 C-9.1975 18.5275 -8.2075 17.8675 -7.1875 17.1875 C-6.85411404 13.64562169 -6.85411404 13.64562169 -7.1875 10.1875 C-7.5175 9.8575 -7.8475 9.5275 -8.1875 9.1875 C-8.6521439 3.84409515 -8.6521439 3.84409515 -6.99609375 1.50390625 C-4.56092508 -0.26855993 -2.97812791 -0.11603096 0 0 Z " fill="#052527" transform="translate(32.1875,26.8125)"/>
<path d="M0 0 C2.31 0 4.62 0 7 0 C8.17112946 2.62309099 9.33705964 5.24828142 10.5 7.875 C10.83386719 8.62136719 11.16773438 9.36773437 11.51171875 10.13671875 C11.98544922 11.20986328 11.98544922 11.20986328 12.46875 12.3046875 C12.76201172 12.96452637 13.05527344 13.62436523 13.35742188 14.30419922 C14 16 14 16 14 18 C14.66 18 15.32 18 16 18 C16.17015625 17.45472656 16.3403125 16.90945312 16.515625 16.34765625 C18.32540814 10.71615022 20.50345378 5.36060431 23 0 C24.98 0 26.96 0 29 0 C28.01 0.495 28.01 0.495 27 1 C27.10954408 4.62564187 27.2402496 8.25021431 27.375 11.875 C27.4059375 12.90753906 27.436875 13.94007812 27.46875 15.00390625 C27.50742188 15.99003906 27.54609375 16.97617187 27.5859375 17.9921875 C27.63306885 19.35899658 27.63306885 19.35899658 27.68115234 20.75341797 C27.79882511 23.19931186 27.79882511 23.19931186 30 25 C27.36 25 24.72 25 22 25 C22.66 24.67 23.32 24.34 24 24 C23.85936865 21.70800823 23.71234057 19.41640814 23.5625 17.125 C23.44068359 15.21074219 23.44068359 15.21074219 23.31640625 13.2578125 C23.20793973 10.11699848 23.20793973 10.11699848 22 8 C19.69 13.61 17.38 19.22 15 25 C14.34 25 13.68 25 13 25 C10.69 19.39 8.38 13.78 6 8 C5.67 13.28 5.34 18.56 5 24 C5.66 24.33 6.32 24.66 7 25 C4.69 25 2.38 25 0 25 C0.66 24.34 1.32 23.68 2 23 C2.31019696 20.80397205 2.31019696 20.80397205 2.265625 18.28125 C2.26820313 17.34925781 2.27078125 16.41726562 2.2734375 15.45703125 C2.26570312 14.48121094 2.25796875 13.50539063 2.25 12.5 C2.25773438 11.52417969 2.26546875 10.54835938 2.2734375 9.54296875 C2.26957031 8.14498047 2.26957031 8.14498047 2.265625 6.71875 C2.26336914 5.86216797 2.26111328 5.00558594 2.25878906 4.12304688 C2.19501572 1.78411453 2.19501572 1.78411453 0 0 Z " fill="#33B4AA" transform="translate(148,27)"/>
<path d="M0 0 C3 1 3 1 4.13500977 3.10131836 C4.48362061 4.00503174 4.83223145 4.90874512 5.19140625 5.83984375 C5.57876953 6.82017578 5.96613281 7.80050781 6.36523438 8.81054688 C6.76033203 9.84244141 7.15542969 10.87433594 7.5625 11.9375 C8.35097674 13.96919693 9.14374559 15.99923491 9.94140625 18.02734375 C10.28888916 18.93218506 10.63637207 19.83702637 10.99438477 20.76928711 C11.90536474 23.14138398 11.90536474 23.14138398 14 25 C11.36 25 8.72 25 6 25 C5.67 22.69 5.34 20.38 5 18 C1.7 17.67 -1.6 17.34 -5 17 C-5 19.64 -5 22.28 -5 25 C-6.98 25 -8.96 25 -11 25 C-10.5565625 24.30648437 -10.113125 23.61296875 -9.65625 22.8984375 C-7.92617768 19.87081094 -6.71089406 16.89286154 -5.5 13.625 C-3.77250298 9.02703966 -1.98488166 4.49210059 0 0 Z " fill="#2BA199" transform="translate(64,27)"/>
<path d="M0 0 C2.70942393 -0.10861833 5.414439 -0.18758577 8.125 -0.25 C8.88554688 -0.28351562 9.64609375 -0.31703125 10.4296875 -0.3515625 C15.80312936 -0.44420805 18.70994272 0.4792843 23 4 C25.53722054 6.53722054 25.38319839 7.65911809 25.5 11.1875 C25.42410444 16.43809275 24.21704167 19.03031255 20.60546875 22.7578125 C16.78436223 25.71428908 12.38671216 25.11443429 7.8125 25.0625 C7.06291016 25.05798828 6.31332031 25.05347656 5.54101562 25.04882812 C3.69397617 25.03706354 1.84697787 25.01912865 0 25 C0.66 24.34 1.32 23.68 2 23 C2.37051993 20.6754661 2.37051993 20.6754661 2.4140625 17.9921875 C2.45273438 17.00605469 2.49140625 16.01992188 2.53125 15.00390625 C2.5621875 13.97136719 2.593125 12.93882813 2.625 11.875 C2.66367188 10.83472656 2.70234375 9.79445313 2.7421875 8.72265625 C2.83664766 6.14861689 2.92221214 3.57458845 3 1 C2.01 0.67 1.02 0.34 0 0 Z M6 1 C6 8.59 6 16.18 6 24 C14.12697581 24.16837102 14.12697581 24.16837102 20 20 C21.97010188 16.05979623 21.4524546 11.29521966 21 7 C19.32148422 4.00265039 18.30430556 2.5846887 15.1875 1.1875 C12.13555303 0.92590455 9.06313769 1 6 1 Z " fill="#32CAC3" transform="translate(92,27)"/>
<path d="M0 0 C0.66 0 1.32 0 2 0 C2.25692627 0.65073486 2.51385254 1.30146973 2.77856445 1.97192383 C3.94854653 4.92202719 5.13036634 7.86724607 6.3125 10.8125 C6.71662109 11.83666016 7.12074219 12.86082031 7.53710938 13.91601562 C7.93349609 14.89892578 8.32988281 15.88183594 8.73828125 16.89453125 C9.28029175 18.25348511 9.28029175 18.25348511 9.83325195 19.63989258 C11.00309227 22.32360517 11.00309227 22.32360517 14 25 C11.03 25 8.06 25 5 25 C5.66 24.67 6.32 24.34 7 24 C5.515 20.535 5.515 20.535 4 17 C1.36 17 -1.28 17 -4 17 C-4.99 19.31 -5.98 21.62 -7 24 C-6.34 24.33 -5.68 24.66 -5 25 C-6.98 25 -8.96 25 -11 25 C-9.54366034 21.58248014 -8.08458127 18.16613652 -6.625 14.75 C-6.2125 13.78191406 -5.8 12.81382813 -5.375 11.81640625 C-4.97539062 10.88183594 -4.57578125 9.94726562 -4.1640625 8.984375 C-3.79748535 8.12553711 -3.4309082 7.26669922 -3.05322266 6.38183594 C-2.09645571 4.21813211 -1.07823088 2.10532038 0 0 Z " fill="#35B4AD" transform="translate(322,27)"/>
<path d="M0 0 C0.66 0 1.32 0 2 0 C2.25692627 0.65073486 2.51385254 1.30146973 2.77856445 1.97192383 C3.94854653 4.92202719 5.13036634 7.86724607 6.3125 10.8125 C6.71662109 11.83666016 7.12074219 12.86082031 7.53710938 13.91601562 C7.93349609 14.89892578 8.32988281 15.88183594 8.73828125 16.89453125 C9.28029175 18.25348511 9.28029175 18.25348511 9.83325195 19.63989258 C11.00309227 22.32360517 11.00309227 22.32360517 14 25 C11.03 25 8.06 25 5 25 C5.66 24.67 6.32 24.34 7 24 C5.515 20.535 5.515 20.535 4 17 C1.36 17 -1.28 17 -4 17 C-5.36579868 20.93954953 -5.36579868 20.93954953 -6 25 C-7.98 25 -9.96 25 -12 25 C-11.55164795 24.61030029 -11.1032959 24.22060059 -10.64135742 23.8190918 C-8.67453146 21.6392881 -7.82512754 19.61952266 -6.73828125 16.89453125 C-6.34189453 15.91162109 -5.94550781 14.92871094 -5.53710938 13.91601562 C-5.13298828 12.89185547 -4.72886719 11.86769531 -4.3125 10.8125 C-3.68891602 9.25885742 -3.68891602 9.25885742 -3.05273438 7.67382812 C-2.02826643 5.11854601 -1.01100156 2.5606333 0 0 Z " fill="#36B9AF" transform="translate(203,27)"/>
<path d="M0 0 C2.57421875 -0.4921875 2.57421875 -0.4921875 6 0 C8.67162517 2.30972254 10.70046128 5.05734288 12.8125 7.875 C13.39708984 8.62136719 13.98167969 9.36773437 14.58398438 10.13671875 C18.74312601 15.48625203 18.74312601 15.48625203 20 18 C20.05382106 15.37472811 20.09358313 12.75055287 20.125 10.125 C20.14175781 9.37863281 20.15851563 8.63226563 20.17578125 7.86328125 C20.1933959 5.90805539 20.10320189 3.95257979 20 2 C19.34 1.34 18.68 0.68 18 0 C20.64 0 23.28 0 26 0 C25.34 0.66 24.68 1.32 24 2 C23.62904292 4.42246595 23.62904292 4.42246595 23.5859375 7.2265625 C23.54726562 8.2578125 23.50859375 9.2890625 23.46875 10.3515625 C23.4378125 11.43179688 23.406875 12.51203125 23.375 13.625 C23.33632812 14.71296875 23.29765625 15.8009375 23.2578125 16.921875 C23.16333753 19.61441165 23.07777569 22.30693757 23 25 C19.55599822 23.39881011 17.88439385 21.89397377 15.625 18.8125 C12.56273935 14.72507649 9.35700314 10.8482719 6 7 C5.67 12.61 5.34 18.22 5 24 C5.66 24.33 6.32 24.66 7 25 C5.02 25 3.04 25 1 25 C1.66 24.34 2.32 23.68 3 23 C3.44869661 19.70756396 3.32408242 16.38202257 3.3125 13.0625 C3.32861328 12.14275391 3.34472656 11.22300781 3.36132812 10.27539062 C3.36197266 9.39173828 3.36261719 8.50808594 3.36328125 7.59765625 C3.36626221 6.78820557 3.36924316 5.97875488 3.37231445 5.14477539 C2.9189844 2.53329702 2.01541048 1.6543619 0 0 Z " fill="#34CCC5" transform="translate(230,27)"/>
<path d="M0 0 C1.73443359 0.00966797 1.73443359 0.00966797 3.50390625 0.01953125 C6.4375 0.1875 6.4375 0.1875 8.4375 1.1875 C8.4375 3.1675 8.4375 5.1475 8.4375 7.1875 C7.7775 6.3625 7.1175 5.5375 6.4375 4.6875 C3.21365126 1.99979679 3.21365126 1.99979679 -0.625 1.625 C-4.54444641 1.85579888 -4.54444641 1.85579888 -7 4.0625 C-9.82308823 7.9019 -9.8807553 10.41367054 -9.5625 15.1875 C-7.98525698 19.16816095 -7.15249089 20.79417274 -3.5625 23.1875 C-1.5132906 23.63889459 -1.5132906 23.63889459 0.625 23.8125 C1.883125 23.93625 3.14125 24.06 4.4375 24.1875 C4.4375 20.8875 4.4375 17.5875 4.4375 14.1875 C3.7775 13.8575 3.1175 13.5275 2.4375 13.1875 C5.0775 13.1875 7.7175 13.1875 10.4375 13.1875 C9.4475 13.6825 9.4475 13.6825 8.4375 14.1875 C8.4375 17.4875 8.4375 20.7875 8.4375 24.1875 C4.29422976 26.1963583 1.02211644 26.58965934 -3.5625 26.1875 C-8.19244259 24.46261943 -11.18972164 22.56801389 -13.5625 18.1875 C-14.33016522 12.98617646 -14.46367469 8.71017447 -11.75 4.125 C-7.6418729 0.48637314 -5.41417686 -0.06654296 0 0 Z " fill="#33D3D0" transform="translate(285.5625,26.8125)"/>
<path d="M0 0 C0.33 0.66 0.66 1.32 1 2 C1.66 2 2.32 2 3 2 C3 1.34 3 0.68 3 0 C4.98 0.66 6.96 1.32 9 2 C9 2.66 9 3.32 9 4 C10.65 4.33 12.3 4.66 14 5 C14 10.61 14 16.22 14 22 C7.60343197 15.60343197 2.10141847 9.57450988 -1 1 C-0.67 0.67 -0.34 0.34 0 0 Z " fill="#060506" transform="translate(237,24)"/>
<path d="M0 0 C0.66 0.33 1.32 0.66 2 1 C2.02887814 4.47914941 2.04675687 7.95826831 2.0625 11.4375 C2.07087891 12.43072266 2.07925781 13.42394531 2.08789062 14.44726562 C2.09111328 15.39150391 2.09433594 16.33574219 2.09765625 17.30859375 C2.10289307 18.18314209 2.10812988 19.05769043 2.11352539 19.95874023 C2 22 2 22 1 23 C1.99 23 2.98 23 4 23 C4 17.06 4 11.12 4 5 C6.60354344 7.60354344 7.71480102 10.60092873 9.125 13.9375 C9.40214844 14.57107422 9.67929688 15.20464844 9.96484375 15.85742188 C11.19579014 18.74074704 12 20.83210205 12 24 C11.34 24 10.68 24 10 24 C10 23.01 10 22.02 10 21 C9.34 21 8.68 21 8 21 C7.67 22.32 7.34 23.64 7 25 C4.03 25 1.06 25 -2 25 C-2.33 23.68 -2.66 22.36 -3 21 C-2.01 21 -1.02 21 0 21 C0 14.07 0 7.14 0 0 Z " fill="#012424" transform="translate(149,28)"/>
<path d="M0 0 C0.90105469 0.02707031 1.80210938 0.05414062 2.73046875 0.08203125 C3.76107422 0.13423828 3.76107422 0.13423828 4.8125 0.1875 C4.8125 2.1675 4.8125 4.1475 4.8125 6.1875 C4.27625 5.5275 3.74 4.8675 3.1875 4.1875 C0.91291408 1.87725201 0.91291408 1.87725201 -2.4375 1.9375 C-3.345 2.02 -4.2525 2.1025 -5.1875 2.1875 C-4.80173243 4.99809227 -4.54428446 6.74936853 -3.1875 9.1875 C-1.07958873 10.62077674 -1.07958873 10.62077674 1.375 11.75 C5.67060051 13.86315832 5.67060051 13.86315832 7.125 17.1875 C6.8125 20.1875 6.8125 20.1875 5.5625 23.0625 C1.31074349 26.34794821 -3.00099962 25.58990089 -8.1875 25.1875 C-8.1875 23.2075 -8.1875 21.2275 -8.1875 19.1875 C-7.3521875 20.1775 -7.3521875 20.1775 -6.5 21.1875 C-4.35258496 23.42362447 -4.35258496 23.42362447 -1.5 23.5 C0.77107126 23.43094314 0.77107126 23.43094314 1.8125 22.1875 C2.2666619 19.80418138 2.2666619 19.80418138 1.8125 17.1875 C-0.10007176 15.10351484 -0.10007176 15.10351484 -2.625 13.4375 C-3.44871094 12.84453125 -4.27242187 12.2515625 -5.12109375 11.640625 C-5.80300781 11.16109375 -6.48492188 10.6815625 -7.1875 10.1875 C-8.1875 9.1875 -8.1875 9.1875 -8.4375 6.3125 C-8.1875 3.1875 -8.1875 3.1875 -6.99609375 1.50390625 C-4.56092508 -0.26855993 -2.97812791 -0.11603096 0 0 Z " fill="#29C0C0" transform="translate(32.1875,26.8125)"/>
<path d="M0 0 C4.40828538 4.40828538 6.27895559 8.31925815 6.5 14.5 C6.29713879 19.75990149 5.24311867 22.85601504 2 27 C-0.92185683 28.06801841 -3.67577104 28.11746301 -6.765625 28.09765625 C-7.65507813 28.09443359 -8.54453125 28.09121094 -9.4609375 28.08789062 C-10.38132812 28.07951172 -11.30171875 28.07113281 -12.25 28.0625 C-13.18585938 28.05798828 -14.12171875 28.05347656 -15.0859375 28.04882812 C-17.39069041 28.03706918 -19.69531227 28.02063426 -22 28 C-21.67 27.34 -21.34 26.68 -21 26 C-19.35451172 26.05220703 -19.35451172 26.05220703 -17.67578125 26.10546875 C-16.22136955 26.13361865 -14.7669412 26.16091752 -13.3125 26.1875 C-12.59126953 26.21263672 -11.87003906 26.23777344 -11.12695312 26.26367188 C-6.51496778 26.32684976 -3.6228635 25.90481848 0 23 C2.94278412 19.9539603 3.45390177 17.69493937 3.5 13.5 C3.40735859 8.95893102 3.40735859 8.95893102 0.625 5.375 C-3.88563509 3.01228638 -7.57818039 2.68738311 -12.625 2.4375 C-13.42679688 2.39431641 -14.22859375 2.35113281 -15.0546875 2.30664062 C-17.0362511 2.20048543 -19.01810271 2.09973145 -21 2 C-16.37232867 -2.62767133 -6.08614809 -1.45538324 0 0 Z " fill="#05292A" transform="translate(113,25)"/>
<path d="M0 0 C0.66 0 1.32 0 2 0 C2.33 1.65 2.66 3.3 3 5 C3.99 5.33 4.98 5.66 6 6 C5.67 6.33 5.34 6.66 5 7 C6.32 7 7.64 7 9 7 C9.33 4.69 9.66 2.38 10 0 C11.62418745 -0.08090971 13.24951745 -0.13914995 14.875 -0.1875 C15.77992187 -0.22230469 16.68484375 -0.25710937 17.6171875 -0.29296875 C18.79667969 -0.14794922 18.79667969 -0.14794922 20 0 C22 3 22 3 22 7 C24.31 7.33 26.62 7.66 29 8 C29 8.33 29 8.66 29 9 C26.03 9 23.06 9 20 9 C19.67 8.01 19.34 7.02 19 6 C15.88742431 6 13.89234315 6.17361624 11 7 C11 7.66 11 8.32 11 9 C6.545 9.495 6.545 9.495 2 10 C0.68373308 6.38026598 0 3.90432869 0 0 Z " fill="#0B0A0D" transform="translate(49,44)"/>
<path d="M0 0 C2.37590142 3.70416126 2.20500286 6.92984573 2.125 11.25 C2.10695312 12.51328125 2.08890625 13.7765625 2.0703125 15.078125 C2.04710937 16.04234375 2.02390625 17.0065625 2 18 C4.31 18 6.62 18 9 18 C9 18.66 9 19.32 9 20 C5.7 20 2.4 20 -1 20 C-1.33 19.01 -1.66 18.02 -2 17 C-3.65 17.33 -5.3 17.66 -7 18 C-5.06375702 11.79522136 -2.74390859 5.89174281 0 0 Z " fill="#021313" transform="translate(170,33)"/>
<path d="M0 0 C0.33 0 0.66 0 1 0 C0.99214478 0.90093384 0.99214478 0.90093384 0.98413086 1.82006836 C0.96341986 4.52586838 0.95035875 7.23165177 0.9375 9.9375 C0.92912109 10.88302734 0.92074219 11.82855469 0.91210938 12.80273438 C0.90888672 13.70185547 0.90566406 14.60097656 0.90234375 15.52734375 C0.89710693 16.35999756 0.89187012 17.19265137 0.88647461 18.05053711 C0.78356708 20.00516798 0.78356708 20.00516798 2 21 C2 15.06 2 9.12 2 3 C7 8 7 8 9 11 C7.68 11 6.36 11 5 11 C5 14.96 5 18.92 5 23 C2.36 23 -0.28 23 -3 23 C-3.33 22.01 -3.66 21.02 -4 20 C-3.01 20 -2.02 20 -1 20 C-1.17200928 19.42024414 -1.34401855 18.84048828 -1.52124023 18.24316406 C-2.27603381 14.70668095 -1.5655467 11.2869495 -1.0625 7.75 C-0.91264648 6.63238281 -0.91264648 6.63238281 -0.75976562 5.4921875 C-0.51319844 3.66054558 -0.25749609 1.83013749 0 0 Z " fill="#012D31" transform="translate(233,30)"/>
<path d="M0 0 C3 1 3 1 4.13500977 3.10131836 C4.48362061 4.00503174 4.83223145 4.90874512 5.19140625 5.83984375 C5.57876953 6.82017578 5.96613281 7.80050781 6.36523438 8.81054688 C6.76033203 9.84244141 7.15542969 10.87433594 7.5625 11.9375 C8.35097674 13.96919693 9.14374559 15.99923491 9.94140625 18.02734375 C10.28888916 18.93218506 10.63637207 19.83702637 10.99438477 20.76928711 C11.90536474 23.14138398 11.90536474 23.14138398 14 25 C11.36 25 8.72 25 6 25 C5.9175 24.05125 5.835 23.1025 5.75 22.125 C5.16679528 17.85977145 3.55247397 14.15940654 1.83984375 10.234375 C1 8 1 8 1 5 C0.34 5 -0.32 5 -1 5 C-0.67 3.35 -0.34 1.7 0 0 Z " fill="#2ED6D3" transform="translate(64,27)"/>
<path d="M0 0 C2.1796875 0.01953125 2.1796875 0.01953125 4.125 0.375 C6.57821644 3.21153151 7.125 4.62623496 7.125 8.375 C9.435 8.705 11.745 9.035 14.125 9.375 C14.125 9.705 14.125 10.035 14.125 10.375 C10.825 10.375 7.525 10.375 4.125 10.375 C4.125 8.395 4.125 6.415 4.125 4.375 C2.805 4.705 1.485 5.035 0.125 5.375 C0.455 6.695 0.785 8.015 1.125 9.375 C-0.525 9.375 -2.175 9.375 -3.875 9.375 C-3.875 8.715 -3.875 8.055 -3.875 7.375 C-4.865 7.705 -5.855 8.035 -6.875 8.375 C-4.71536145 0.4563253 -4.71536145 0.4563253 0 0 Z " fill="#040E0F" transform="translate(202.875,42.625)"/>
<path d="M0 0 C0.66 0 1.32 0 2 0 C2.25692627 0.65073486 2.51385254 1.30146973 2.77856445 1.97192383 C3.94854653 4.92202719 5.13036634 7.86724607 6.3125 10.8125 C6.91868164 12.34874023 6.91868164 12.34874023 7.53710938 13.91601562 C8.13168945 15.39038086 8.13168945 15.39038086 8.73828125 16.89453125 C9.09962158 17.80050049 9.46096191 18.70646973 9.83325195 19.63989258 C11.00309227 22.32360517 11.00309227 22.32360517 14 25 C11.03 25 8.06 25 5 25 C5.66 24.67 6.32 24.34 7 24 C5.5907908 18.88627874 4.08457578 13.99039328 1.8125 9.1875 C0.31719757 5.98084383 -0.46483735 3.60248948 0 0 Z " fill="#2FD2CC" transform="translate(203,27)"/>
<path d="M0 0 C2.68985564 1.34492782 2.79334286 2.58111683 3.83984375 5.3671875 C4.18080078 6.25277344 4.52175781 7.13835938 4.87304688 8.05078125 C5.5796182 9.92546406 6.28535484 11.80046168 6.99023438 13.67578125 C7.33248047 14.56394531 7.67472656 15.45210937 8.02734375 16.3671875 C8.33406006 17.18300293 8.64077637 17.99881836 8.95678711 18.83935547 C10.02468708 21.35400852 10.02468708 21.35400852 13 24 C10.03 24 7.06 24 4 24 C4.66 23.67 5.32 23.34 6 23 C5.57847656 21.99839844 5.15695312 20.99679688 4.72265625 19.96484375 C4.16885064 18.62256912 3.61548883 17.28011133 3.0625 15.9375 C2.78470703 15.28072266 2.50691406 14.62394531 2.22070312 13.94726562 C0.44586362 9.60639311 -0.62385888 5.68683782 -1 1 C-0.67 0.67 -0.34 0.34 0 0 Z " fill="#33D5CE" transform="translate(323,28)"/>
<path d="M0 0 C2.31 0 4.62 0 7 0 C7.33 1.32 7.66 2.64 8 4 C7.01 4.495 7.01 4.495 6 5 C5.67 11.27 5.34 17.54 5 24 C5.66 24.33 6.32 24.66 7 25 C4.69 25 2.38 25 0 25 C0.66 24.34 1.32 23.68 2 23 C2.31019696 20.80397205 2.31019696 20.80397205 2.265625 18.28125 C2.26820313 17.34925781 2.27078125 16.41726562 2.2734375 15.45703125 C2.26570312 14.48121094 2.25796875 13.50539063 2.25 12.5 C2.25773438 11.52417969 2.26546875 10.54835938 2.2734375 9.54296875 C2.26957031 8.14498047 2.26957031 8.14498047 2.265625 6.71875 C2.26336914 5.86216797 2.26111328 5.00558594 2.25878906 4.12304688 C2.19501572 1.78411453 2.19501572 1.78411453 0 0 Z " fill="#33908C" transform="translate(148,27)"/>
<path d="M0 0 C0.66 0.33 1.32 0.66 2 1 C2.08678303 4.95819611 2.14031733 8.91614934 2.1875 12.875 C2.21263672 14.00292969 2.23777344 15.13085938 2.26367188 16.29296875 C2.27817383 17.90751953 2.27817383 17.90751953 2.29296875 19.5546875 C2.3086792 20.54968262 2.32438965 21.54467773 2.34057617 22.56982422 C2.22818604 23.37178223 2.1157959 24.17374023 2 25 C-1 27 -1 27 -3.1875 26.625 C-4.0846875 26.315625 -4.0846875 26.315625 -5 26 C-4.67 24.68 -4.34 23.36 -4 22 C-2.515 22.99 -2.515 22.99 -1 24 C-1.00523682 23.30849854 -1.01047363 22.61699707 -1.01586914 21.90454102 C-1.036575 18.79053648 -1.04963963 15.67654639 -1.0625 12.5625 C-1.07087891 11.47388672 -1.07925781 10.38527344 -1.08789062 9.26367188 C-1.09111328 8.22919922 -1.09433594 7.19472656 -1.09765625 6.12890625 C-1.10289307 5.17056885 -1.10812988 4.21223145 -1.11352539 3.22485352 C-1 1 -1 1 0 0 Z " fill="#001718" transform="translate(254,28)"/>
<path d="M0 0 C2.64 0 5.28 0 8 0 C7.01 0.495 7.01 0.495 6 1 C6 4.3 6 7.6 6 11 C1.8794254 12.99785435 -1.45194365 13.17835515 -6 13 C-6 12.67 -6 12.34 -6 12 C-3.36 11.67 -0.72 11.34 2 11 C2 7.7 2 4.4 2 1 C1.34 0.67 0.68 0.34 0 0 Z " fill="#28BCB5" transform="translate(288,40)"/>
<path d="M0 0 C0.33 0 0.66 0 1 0 C1.91116273 9.33098129 1.91116273 9.33098129 -0.23046875 13.25390625 C-2.71299095 16.19002509 -4.30121745 17.76707248 -8 19 C-9.72795352 19.06802967 -11.45835365 19.08495645 -13.1875 19.0625 C-14.53908203 19.04896484 -14.53908203 19.04896484 -15.91796875 19.03515625 C-16.60503906 19.02355469 -17.29210937 19.01195313 -18 19 C-18 18.67 -18 18.34 -18 18 C-16.98679687 17.85304688 -16.98679687 17.85304688 -15.953125 17.703125 C-12.07796692 17.05353203 -8.81573495 16.49739936 -5.4375 14.4375 C-3.29695601 10.80788193 -3.17750126 7.15352945 -3 3 C-2.67 3 -2.34 3 -2 3 C-1.67 4.98 -1.34 6.96 -1 9 C-0.67 6.03 -0.34 3.06 0 0 Z " fill="#2FB9B3" transform="translate(116,33)"/>
<path d="M0 0 C1.73443359 0.00966797 1.73443359 0.00966797 3.50390625 0.01953125 C6.4375 0.1875 6.4375 0.1875 8.4375 1.1875 C8.4375 3.1675 8.4375 5.1475 8.4375 7.1875 C7.7775 6.3625 7.1175 5.5375 6.4375 4.6875 C3.21365126 1.99979679 3.21365126 1.99979679 -0.625 1.625 C-4.46548033 1.89971868 -4.46548033 1.89971868 -6.9375 3.6875 C-9.15873761 7.10478863 -9.76398802 10.19494011 -10.5625 14.1875 C-10.8925 14.1875 -11.2225 14.1875 -11.5625 14.1875 C-11.706875 13.40375 -11.85125 12.62 -12 11.8125 C-12.44048925 9.22328982 -12.44048925 9.22328982 -13.5625 7.1875 C-9.33329859 1.64578781 -7.03889393 -0.08651155 0 0 Z " fill="#3DCFCC" transform="translate(285.5625,26.8125)"/>
<path d="M0 0 C2 2 2 2 2 4 C1.19304687 3.84660156 0.38609375 3.69320313 -0.4453125 3.53515625 C-4.59047179 2.9111048 -8.6922296 2.65372796 -12.875 2.4375 C-13.65875 2.39431641 -14.4425 2.35113281 -15.25 2.30664062 C-17.16650649 2.20146649 -19.08323333 2.10032075 -21 2 C-16.37232867 -2.62767133 -6.08614809 -1.45538324 0 0 Z " fill="#031D22" transform="translate(113,25)"/>
<path d="M0 0 C0.66 0 1.32 0 2 0 C2.33 7.92 2.66 15.84 3 24 C1.02 24 -0.96 24 -3 24 C-2.34 23.34 -1.68 22.68 -1 22 C-0.62948007 19.6754661 -0.62948007 19.6754661 -0.5859375 16.9921875 C-0.54726562 16.00605469 -0.50859375 15.01992188 -0.46875 14.00390625 C-0.4378125 12.97136719 -0.406875 11.93882813 -0.375 10.875 C-0.33632812 9.83472656 -0.29765625 8.79445313 -0.2578125 7.72265625 C-0.16335234 5.14861689 -0.07778786 2.57458845 0 0 Z " fill="#2BD3D1" transform="translate(95,28)"/>
<path d="M0 0 C0.66 0.66 1.32 1.32 2 2 C1.80859503 4.99867782 1.56891476 7.20054461 -0.1953125 9.6796875 C-2.73830206 11.54014307 -4.5768684 11.297287 -7.6875 11.1875 C-8.68136719 11.16042969 -9.67523437 11.13335937 -10.69921875 11.10546875 C-11.45847656 11.07066406 -12.21773437 11.03585938 -13 11 C-13 9.02 -13 7.04 -13 5 C-12.1646875 5.99 -12.1646875 5.99 -11.3125 7 C-9.16508496 9.23612447 -9.16508496 9.23612447 -6.3125 9.3125 C-4.04142874 9.24344314 -4.04142874 9.24344314 -3 8 C-2.95907063 5.66702567 -2.95758277 3.33294775 -3 1 C-2.01 0.67 -1.02 0.34 0 0 Z " fill="#29B0B2" transform="translate(37,41)"/>
<path d="M0 0 C2.64 0 5.28 0 8 0 C7.34 0.66 6.68 1.32 6 2 C5.62904292 4.42246595 5.62904292 4.42246595 5.5859375 7.2265625 C5.54726562 8.2578125 5.50859375 9.2890625 5.46875 10.3515625 C5.42234375 11.97191406 5.42234375 11.97191406 5.375 13.625 C5.33632812 14.71296875 5.29765625 15.8009375 5.2578125 16.921875 C5.16333753 19.61441165 5.07777569 22.30693757 5 25 C4.34 24.67 3.68 24.34 3 24 C2.98018066 23.34402832 2.96036133 22.68805664 2.93994141 22.01220703 C2.84487493 19.04938931 2.73512248 16.08729468 2.625 13.125 C2.5940625 12.09246094 2.563125 11.05992188 2.53125 9.99609375 C2.49257812 9.00996094 2.45390625 8.02382813 2.4140625 7.0078125 C2.3826416 6.09660645 2.3512207 5.18540039 2.31884766 4.24658203 C2.20117489 1.80068814 2.20117489 1.80068814 0 0 Z " fill="#46AAA5" transform="translate(248,27)"/>
<path d="M0 0 C1.62418745 -0.08090971 3.24951745 -0.13914995 4.875 -0.1875 C5.77992187 -0.22230469 6.68484375 -0.25710937 7.6171875 -0.29296875 C8.79667969 -0.14794922 8.79667969 -0.14794922 10 0 C12 3 12 3 12 7 C14.31 7.33 16.62 7.66 19 8 C19 8.33 19 8.66 19 9 C16.03 9 13.06 9 10 9 C9.67 8.01 9.34 7.02 9 6 C8.34 6 7.68 6 7 6 C7.66 4.35 8.32 2.7 9 1 C6.69 1 4.38 1 2 1 C1.34 2.98 0.68 4.96 0 7 C-0.93423645 3.98968256 -1.04449911 3.13349732 0 0 Z " fill="#012D2A" transform="translate(59,44)"/>
<path d="M0 0 C0.33 0 0.66 0 1 0 C1 5.61 1 11.22 1 17 C-2.64126437 13.35873563 -5.87150363 10.02235247 -9 6 C-9 5.34 -9 4.68 -9 4 C-8.01 4 -7.02 4 -6 4 C-5.67 5.32 -5.34 6.64 -5 8 C-4.34 8 -3.68 8 -3 8 C-3 8.66 -3 9.32 -3 10 C-2.34 10 -1.68 10 -1 10 C-0.67 6.7 -0.34 3.4 0 0 Z " fill="#012A28" transform="translate(250,29)"/>
<path d="M0 0 C0.33 0 0.66 0 1 0 C1.02888146 3.31248187 1.04675799 6.62493167 1.0625 9.9375 C1.07087891 10.88302734 1.07925781 11.82855469 1.08789062 12.80273438 C1.09111328 13.70185547 1.09433594 14.60097656 1.09765625 15.52734375 C1.10289307 16.35999756 1.10812988 17.19265137 1.11352539 18.05053711 C1 20 1 20 0 21 C1.65 21 3.3 21 5 21 C5 21.66 5 22.32 5 23 C2.36 23 -0.28 23 -3 23 C-3.33 22.01 -3.66 21.02 -4 20 C-3.01 20 -2.02 20 -1 20 C-1.17200928 19.42024414 -1.34401855 18.84048828 -1.52124023 18.24316406 C-2.27603381 14.70668095 -1.5655467 11.2869495 -1.0625 7.75 C-0.91264648 6.63238281 -0.91264648 6.63238281 -0.75976562 5.4921875 C-0.51319844 3.66054558 -0.25749609 1.83013749 0 0 Z " fill="#0A3335" transform="translate(233,30)"/>
<path d="M0 0 C0.33 0 0.66 0 1 0 C1 2.31 1 4.62 1 7 C0.01 7 -0.98 7 -2 7 C-2 6.34 -2 5.68 -2 5 C-2.99 4.67 -3.98 4.34 -5 4 C-5 3.34 -5 2.68 -5 2 C-5.66 2 -6.32 2 -7 2 C-7 3.98 -7 5.96 -7 8 C-5.68 8.66 -4.36 9.32 -3 10 C-6 11 -6 11 -8.1875 9.9375 C-10 8 -10 8 -10.25 4.8125 C-10.1675 3.884375 -10.085 2.95625 -10 2 C-7.1875 1.375 -7.1875 1.375 -4 1 C-3.01 1.66 -2.02 2.32 -1 3 C-0.67 2.01 -0.34 1.02 0 0 Z " fill="#04292B" transform="translate(37,27)"/>
<path d="M0 0 C1.98 0 3.96 0 6 0 C5.01 0.495 5.01 0.495 4 1 C4.10954408 4.62564187 4.2402496 8.25021431 4.375 11.875 C4.4059375 12.90753906 4.436875 13.94007812 4.46875 15.00390625 C4.50742188 15.99003906 4.54609375 16.97617187 4.5859375 17.9921875 C4.6173584 18.90339355 4.6487793 19.81459961 4.68115234 20.75341797 C4.79882511 23.19931186 4.79882511 23.19931186 7 25 C4.36 25 1.72 25 -1 25 C-0.34 24.67 0.32 24.34 1 24 C1.46998861 21.67375983 1.46998861 21.67375983 1.6328125 18.87109375 C1.71660156 17.83662109 1.80039063 16.80214844 1.88671875 15.73632812 C1.96535156 14.64771484 2.04398438 13.55910156 2.125 12.4375 C2.21136719 11.34501953 2.29773438 10.25253906 2.38671875 9.12695312 C2.59960954 6.41850919 2.80363237 3.70968393 3 1 C2.01 0.67 1.02 0.34 0 0 Z " fill="#32ABA4" transform="translate(171,27)"/>
<path d="M0 0 C0.66 0.33 1.32 0.66 2 1 C1.67 1.99 1.34 2.98 1 4 C0.34 4 -0.32 4 -1 4 C0.25541557 6.51083114 1.50063488 6.87125446 4 8 C2.68 9.32 1.36 10.64 0 12 C0 11.01 0 10.02 0 9 C-1.65 9 -3.3 9 -5 9 C-5 8.34 -5 7.68 -5 7 C-5.99 6.67 -6.98 6.34 -8 6 C-7.05125 5.566875 -6.1025 5.13375 -5.125 4.6875 C-1.79958063 3.20697799 -1.79958063 3.20697799 0 0 Z " fill="#051113" transform="translate(38,47)"/>
<path d="M0 0 C0.66 0 1.32 0 2 0 C2.99 2.97 3.98 5.94 5 9 C2.36 9 -0.28 9 -3 9 C-2.01 6.03 -1.02 3.06 0 0 Z " fill="#04332F" transform="translate(202,33)"/>
<path d="M0 0 C2.37590142 3.70416126 2.20500286 6.92984573 2.125 11.25 C2.10695312 12.51328125 2.08890625 13.7765625 2.0703125 15.078125 C2.04710937 16.04234375 2.02390625 17.0065625 2 18 C1.34 17.67 0.68 17.34 0 17 C-0.59355614 14.35139573 -0.74209269 11.70802678 -1 9 C-1.33 9.66 -1.66 10.32 -2 11 C-2.66 11 -3.32 11 -4 11 C-3.52269162 9.5410574 -3.04308958 8.08286504 -2.5625 6.625 C-2.29566406 5.81289063 -2.02882812 5.00078125 -1.75390625 4.1640625 C-1 2 -1 2 0 0 Z " fill="#073D3B" transform="translate(170,33)"/>
<path d="M0 0 C0.99 0.33 1.98 0.66 3 1 C4.16796875 3.43359375 4.16796875 3.43359375 5.1875 6.4375 C5.70376953 7.92056641 5.70376953 7.92056641 6.23046875 9.43359375 C7 12 7 12 7 14 C7.66 14 8.32 14 9 14 C9.33 12.02 9.66 10.04 10 8 C10.66 8 11.32 8 12 8 C11.01 10.97 10.02 13.94 9 17 C8.34 17 7.68 17 7 17 C5.82866942 14.54379149 4.66278278 12.08525083 3.5 9.625 C3.16613281 8.92632812 2.83226562 8.22765625 2.48828125 7.5078125 C0 2.2265625 0 2.2265625 0 0 Z " fill="#002724" transform="translate(155,28)"/>
<path d="M0 0 C0.66 0 1.32 0 2 0 C2.99 2.97 3.98 5.94 5 9 C2.69 9 0.38 9 -2 9 C-1.51421457 5.87709365 -1.0013988 3.00419641 0 0 Z " fill="#033032" transform="translate(63,33)"/>
<path d="M0 0 C0.33 0.66 0.66 1.32 1 2 C2.65 2 4.3 2 6 2 C5.67 2.66 5.34 3.32 5 4 C3.95199219 3.98839844 2.90398437 3.97679687 1.82421875 3.96484375 C0.44531428 3.95546345 -0.93359211 3.9463635 -2.3125 3.9375 C-3.00279297 3.92912109 -3.69308594 3.92074219 -4.40429688 3.91210938 C-7.5483025 3.89692094 -9.99420019 3.99806673 -13 5 C-13 3.68 -13 2.36 -13 1 C-6.565 0.505 -6.565 0.505 0 0 Z " fill="#02292A" transform="translate(289,24)"/>
<path d="M0 0 C1.32 0.33 2.64 0.66 4 1 C4.33 2.98 4.66 4.96 5 7 C2.69 7.33 0.38 7.66 -2 8 C-1.34 5.36 -0.68 2.72 0 0 Z " fill="#070406" transform="translate(28,42)"/>
<path d="M0 0 C0.99 0 1.98 0 3 0 C3.02710123 2.5625718 3.04688771 5.12485365 3.0625 7.6875 C3.07087891 8.40873047 3.07925781 9.12996094 3.08789062 9.87304688 C3.10543632 13.71555382 2.93524221 17.26639526 2 21 C1.67 21 1.34 21 1 21 C0.67 14.07 0.34 7.14 0 0 Z " fill="#3CEDE1" transform="translate(171,28)"/>
<path d="M0 0 C2.32471812 0.92988725 3.73065431 1.6172456 5.1875 3.6875 C6.26385267 6.7509653 6.62879105 9.78285575 7 13 C6.01 13 5.02 13 4 13 C3.32942113 11.2097939 2.6636531 9.41778511 2 7.625 C1.62875 6.62726562 1.2575 5.62953125 0.875 4.6015625 C0 2 0 2 0 0 Z " fill="#33DED3" transform="translate(153,30)"/>
<path d="M0 0 C0.66 0 1.32 0 2 0 C3.49821059 3.37097383 4 5.20442119 4 9 C2.02 9 0.04 9 -2 9 C-1.125 2.25 -1.125 2.25 0 0 Z " fill="#032B2B" transform="translate(321,33)"/>
<path d="M0 0 C0.99 0.33 1.98 0.66 3 1 C3 4.3 3 7.6 3 11 C-4.26153846 11.61538462 -4.26153846 11.61538462 -8 8.5 C-8.66 7.675 -9.32 6.85 -10 6 C-7.525 6.495 -7.525 6.495 -5 7 C-5 7.66 -5 8.32 -5 9 C-2.69 9 -0.38 9 2 9 C2 6.69 2 4.38 2 2 C1.34 2 0.68 2 0 2 C0 1.34 0 0.68 0 0 Z " fill="#002A2A" transform="translate(287,40)"/>
<path d="M0 0 C0.66 0 1.32 0 2 0 C2.0270043 1.45823212 2.04639787 2.91660675 2.0625 4.375 C2.07410156 5.18710937 2.08570313 5.99921875 2.09765625 6.8359375 C2 9 2 9 1 11 C0.34 11 -0.32 11 -1 11 C-1 10.34 -1 9.68 -1 9 C-1.66 9 -2.32 9 -3 9 C-3.33 8.01 -3.66 7.02 -4 6 C-3.01 5.67 -2.02 5.34 -1 5 C-0.67 3.35 -0.34 1.7 0 0 Z " fill="#070C10" transform="translate(248,28)"/>
<path d="M0 0 C5.30927425 -0.43518641 5.30927425 -0.43518641 8 0 C10.45321644 2.83653151 11 4.25123496 11 8 C13.31 8.33 15.62 8.66 18 9 C18 9.33 18 9.66 18 10 C14.7 10 11.4 10 8 10 C8 7.36 8 4.72 8 2 C5.36 1.67 2.72 1.34 0 1 C0 0.67 0 0.34 0 0 Z " fill="#033A3B" transform="translate(199,43)"/>
<path d="M0 0 C0.33 0 0.66 0 1 0 C2.5626644 4.78565973 3.67215965 8.91079119 3 14 C0.5 16.4375 0.5 16.4375 -2 18 C-2.33 17.01 -2.66 16.02 -3 15 C-2.50886719 14.63261719 -2.01773437 14.26523437 -1.51171875 13.88671875 C0.64766233 11.19167724 0.29719058 9.21290785 0.1875 5.8125 C0.16042969 4.72582031 0.13335938 3.63914063 0.10546875 2.51953125 C0.05326172 1.27236328 0.05326172 1.27236328 0 0 Z " fill="#021615" transform="translate(23,30)"/>
<path d="M0 0 C0.90105469 0.02707031 1.80210938 0.05414062 2.73046875 0.08203125 C3.76107422 0.13423828 3.76107422 0.13423828 4.8125 0.1875 C4.8125 2.1675 4.8125 4.1475 4.8125 6.1875 C4.27625 5.5275 3.74 4.8675 3.1875 4.1875 C0.91291408 1.87725201 0.91291408 1.87725201 -2.4375 1.9375 C-3.345 2.02 -4.2525 2.1025 -5.1875 2.1875 C-5.125625 2.97125 -5.06375 3.755 -5 4.5625 C-5.061875 5.42875 -5.12375 6.295 -5.1875 7.1875 C-6.1775 7.8475 -7.1675 8.5075 -8.1875 9.1875 C-8.55288462 3.70673077 -8.55288462 3.70673077 -7 1.5 C-4.56175415 -0.26562631 -2.97705493 -0.11598915 0 0 Z " fill="#3DB3B1" transform="translate(32.1875,26.8125)"/>
<path d="M0 0 C2.64 0 5.28 0 8 0 C8.33 0.99 8.66 1.98 9 3 C8.34 3 7.68 3 7 3 C7 3.66 7 4.32 7 5 C6.34 5 5.68 5 5 5 C4.67 5.66 4.34 6.32 4 7 C4 5.68 4 4.36 4 3 C2.35 3 0.7 3 -1 3 C-0.67 2.01 -0.34 1.02 0 0 Z " fill="#03231F" transform="translate(318,43)"/>
<path d="M0 0 C0.99 0 1.98 0 3 0 C3.33 1.65 3.66 3.3 4 5 C3.01 5 2.02 5 1 5 C1 5.66 1 6.32 1 7 C-0.32 7.33 -1.64 7.66 -3 8 C-2.67 6.02 -2.34 4.04 -2 2 C-1.34 2 -0.68 2 0 2 C0 1.34 0 0.68 0 0 Z " fill="#021310" transform="translate(325,46)"/>
<path d="M0 0 C2.34914492 2.34914492 2.73140357 3.95679446 3.625 7.125 C3.88539063 8.03507812 4.14578125 8.94515625 4.4140625 9.8828125 C4.70410156 10.93082031 4.70410156 10.93082031 5 12 C3.35 12 1.7 12 0 12 C0 8.04 0 4.08 0 0 Z " fill="#023331" transform="translate(153,33)"/>
<path d="M0 0 C0.33 0.66 0.66 1.32 1 2 C0.26821134 4.07196631 -0.55899003 6.1108552 -1.4375 8.125 C-1.91058594 9.22070312 -2.38367187 10.31640625 -2.87109375 11.4453125 C-3.24363281 12.28835937 -3.61617187 13.13140625 -4 14 C-4.66 12.68 -5.32 11.36 -6 10 C-5.34 10 -4.68 10 -4 10 C-4 9.01 -4 8.02 -4 7 C-4.99 7.33 -5.98 7.66 -7 8 C-7 7.01 -7 6.02 -7 5 C-6.360625 4.896875 -5.72125 4.79375 -5.0625 4.6875 C-4.381875 4.460625 -3.70125 4.23375 -3 4 C-2.67 3.01 -2.34 2.02 -2 1 C-1.34 0.67 -0.68 0.34 0 0 Z " fill="#01201E" transform="translate(63,28)"/>
<path d="M0 0 C2.7839183 1.39195915 2.97898997 3.15575779 4 6 C1.24075815 7.80411967 0.11027897 8.0127245 -3.25 7.625 C-4.1575 7.41875 -5.065 7.2125 -6 7 C-6 5.68 -6 4.36 -6 3 C-5.01 3.33 -4.02 3.66 -3 4 C-3.33 4.33 -3.66 4.66 -4 5 C-3.01 5 -2.02 5 -1 5 C-0.67 3.35 -0.34 1.7 0 0 Z " fill="#052426" transform="translate(316,46)"/>
<path d="M0 0 C3.1894996 4.7842494 4.26863974 8.22424557 4 14 C3.34 14 2.68 14 2 14 C1.46987262 12.71211992 0.9511671 11.41953322 0.4375 10.125 C0.14746094 9.40570313 -0.14257812 8.68640625 -0.44140625 7.9453125 C-1 6 -1 6 0 4 C0 2.68 0 1.36 0 0 Z " fill="#2BCABD" transform="translate(159,38)"/>
<path d="M0 0 C6.58419524 0.56466399 6.58419524 0.56466399 9.1015625 3.08203125 C9.4109375 3.72140625 9.7203125 4.36078125 10.0390625 5.01953125 C9.7090625 5.67953125 9.3790625 6.33953125 9.0390625 7.01953125 C8.3790625 6.02953125 7.7190625 5.03953125 7.0390625 4.01953125 C4.45526073 3.76922148 4.45526073 3.76922148 2.0390625 4.01953125 C2.6990625 4.34953125 3.3590625 4.67953125 4.0390625 5.01953125 C3.7090625 5.67953125 3.3790625 6.33953125 3.0390625 7.01953125 C2.0490625 6.68953125 1.0590625 6.35953125 0.0390625 6.01953125 C-0.2909375 5.02953125 -0.6209375 4.03953125 -0.9609375 3.01953125 C-1.6209375 2.35953125 -2.2809375 1.69953125 -2.9609375 1.01953125 C-1.9609375 0.01953125 -1.9609375 0.01953125 0 0 Z " fill="#031719" transform="translate(228.9609375,23.98046875)"/>
<path d="M0 0 C0.66 0 1.32 0 2 0 C2.33 1.65 2.66 3.3 3 5 C3.99 5.33 4.98 5.66 6 6 C5.67 6.33 5.34 6.66 5 7 C6.32 7.66 7.64 8.32 9 9 C6.69 9.33 4.38 9.66 2 10 C0.68373308 6.38026598 0 3.90432869 0 0 Z " fill="#07191D" transform="translate(49,44)"/>
<path d="M0 0 C1.97303774 1.97303774 2.77145934 3.54291869 4 6 C4.66 6.66 5.32 7.32 6 8 C3.03 8 0.06 8 -3 8 C-2.34 7.67 -1.68 7.34 -1 7 C-1.20625 6.401875 -1.4125 5.80375 -1.625 5.1875 C-2 3 -2 3 0 0 Z " fill="#30BDBE" transform="translate(330,44)"/>
<path d="M0 0 C1.89213369 2.38573379 3.02391783 4.07175348 4 7 C4.66 7.66 5.32 8.32 6 9 C3.36 9 0.72 9 -2 9 C-1.505 7.88625 -1.505 7.88625 -1 6.75 C0.22782871 3.86116688 0.22782871 3.86116688 0 0 Z " fill="#2CBBBA" transform="translate(72,43)"/>
<path d="M0 0 C2.12493141 -0.02693575 4.24995912 -0.04636628 6.375 -0.0625 C7.55835938 -0.07410156 8.74171875 -0.08570312 9.9609375 -0.09765625 C13 0 13 0 15 1 C15 2.98 15 4.96 15 7 C14.38125 6.195625 13.7625 5.39125 13.125 4.5625 C9.50556751 0.84864753 4.92468119 1.10518737 0 1 C0 0.67 0 0.34 0 0 Z " fill="#3AAAA7" transform="translate(279,27)"/>
<path d="M0 0 C2.5 1.6875 2.5 1.6875 5 4 C5.3125 6.75 5.3125 6.75 5 9 C2 8 2 8 0.25 5.625 C-1 3 -1 3 0 0 Z " fill="#24D7C6" transform="translate(247,42)"/>
<path d="M0 0 C2 2 2 2 2.265625 4.53125 C2.25789063 6.00078125 2.25789063 6.00078125 2.25 7.5 C2.25515625 8.4796875 2.2603125 9.459375 2.265625 10.46875 C2 13 2 13 0 15 C-0.69371494 10.99186924 -1.21053264 7.90060516 0 4 C0 2.68 0 1.36 0 0 Z " fill="#002225" transform="translate(111,32)"/>
<path d="M0 0 C0.556875 0.66 1.11375 1.32 1.6875 2 C3.8196051 4.21976204 3.8196051 4.21976204 6.5625 4.3125 C9.13421051 4.06249753 9.13421051 4.06249753 12 3 C11.67 3.99 11.34 4.98 11 6 C7.37 6 3.74 6 0 6 C0 4.02 0 2.04 0 0 Z " fill="#3AB1B4" transform="translate(24,46)"/>
<path d="M0 0 C0 0.99 0 1.98 0 3 C-0.33 3.33 -0.66 3.66 -1 4 C0.65 4 2.3 4 4 4 C4 4.66 4 5.32 4 6 C-2.0546875 6.1953125 -2.0546875 6.1953125 -4 6 C-4.66 5.34 -5.32 4.68 -6 4 C-4.02 2.68 -2.04 1.36 0 0 Z " fill="#052728" transform="translate(194,47)"/>
<path d="M0 0 C2 3 2 3 2 6 C4.64 6 7.28 6 10 6 C10 6.33 10 6.66 10 7 C7.03 7 4.06 7 1 7 C0.67 6.01 0.34 5.02 0 4 C-0.66 4 -1.32 4 -2 4 C-1.34 2.68 -0.68 1.36 0 0 Z " fill="#051D1F" transform="translate(68,46)"/>
<path d="M0 0 C4.5 3 4.5 3 9 6 C6.75 6.75 6.75 6.75 4 7 C1.6875 5.25 1.6875 5.25 0 3 C0 2.01 0 1.02 0 0 Z " fill="#012227" transform="translate(273,47)"/>
<path d="M0 0 C2.31 0 4.62 0 7 0 C7.33 1.32 7.66 2.64 8 4 C7.01 4.495 7.01 4.495 6 5 C5.34 5.66 4.68 6.32 4 7 C4 5.35 4 3.7 4 2 C2.68 1.34 1.36 0.68 0 0 Z " fill="#35BEB2" transform="translate(148,27)"/>
<path d="M0 0 C1.875 0.25 1.875 0.25 4 1 C6.03603536 4.08156703 6.154702 6.14802637 5.625 9.75 C5.51414062 10.54921875 5.40328125 11.3484375 5.2890625 12.171875 C5.19367188 12.77515625 5.09828125 13.3784375 5 14 C4.67 14 4.34 14 4 14 C3.96261719 13.32453125 3.92523438 12.6490625 3.88671875 11.953125 C3.82097656 11.06109375 3.75523438 10.1690625 3.6875 9.25 C3.62949219 8.36828125 3.57148437 7.4865625 3.51171875 6.578125 C2.9358819 3.67696226 1.92403852 2.20774393 0 0 Z " fill="#033F42" transform="translate(113,29)"/>
<path d="M0 0 C0.99 0.33 1.98 0.66 3 1 C3.33 2.65 3.66 4.3 4 6 C3.01 6.66 2.02 7.32 1 8 C1 7.01 1 6.02 1 5 C0.34 5 -0.32 5 -1 5 C-0.67 3.35 -0.34 1.7 0 0 Z " fill="#30C7BC" transform="translate(64,27)"/>
<path d="M0 0 C0.33 0 0.66 0 1 0 C1.04898438 0.69867188 1.09796875 1.39734375 1.1484375 2.1171875 C1.22320312 3.02726562 1.29796875 3.93734375 1.375 4.875 C1.44460937 5.77992187 1.51421875 6.68484375 1.5859375 7.6171875 C1.79568132 10.17941903 1.79568132 10.17941903 4 12 C1.69 12 -0.62 12 -3 12 C-2.34 11.34 -1.68 10.68 -1 10 C-0.53837573 7.56747339 -0.53837573 7.56747339 -0.375 4.875 C-0.30023438 3.96492188 -0.22546875 3.05484375 -0.1484375 2.1171875 C-0.09945312 1.41851562 -0.05046875 0.71984375 0 0 Z " fill="#46B8B6" transform="translate(151,40)"/>
<path d="M0 0 C3.3 0.33 6.6 0.66 10 1 C10 1.33 10 1.66 10 2 C7.02148438 2.29296875 7.02148438 2.29296875 4.04296875 2.5859375 C1.70011858 2.92665391 1.70011858 2.92665391 -1 5 C-0.67 3.35 -0.34 1.7 0 0 Z " fill="#023135" transform="translate(25,25)"/>
<path d="M0 0 C-0.33 1.98 -0.66 3.96 -1 6 C-1.99 6 -2.98 6 -4 6 C-4 4.35 -4 2.7 -4 1 C-2 0 -2 0 0 0 Z " fill="#040809" transform="translate(157,44)"/>
<path d="M0 0 C0.66 0.33 1.32 0.66 2 1 C2 2.32 2 3.64 2 5 C-0.31 5.33 -2.62 5.66 -5 6 C-3.68 5.67 -2.36 5.34 -1 5 C-1.33 4.01 -1.66 3.02 -2 2 C-1.34 1.34 -0.68 0.68 0 0 Z " fill="#010A0C" transform="translate(31,44)"/>
<path d="M0 0 C0 2.31 0 4.62 0 7 C-0.99 7.495 -0.99 7.495 -2 8 C-2.66 5.69 -3.32 3.38 -4 1 C-1 0 -1 0 0 0 Z " fill="#011B20" transform="translate(215,41)"/>
<path d="M0 0 C0.66 0 1.32 0 2 0 C1.67 1.98 1.34 3.96 1 6 C1.66 6 2.32 6 3 6 C3 6.66 3 7.32 3 8 C1.68 8 0.36 8 -1 8 C-0.67 5.36 -0.34 2.72 0 0 Z " fill="#031F1A" transform="translate(202,33)"/>
<path d="M0 0 C2.4375 0.375 2.4375 0.375 5 1 C5.33 1.66 5.66 2.32 6 3 C3.36 3.33 0.72 3.66 -2 4 C-1.34 2.68 -0.68 1.36 0 0 Z " fill="#011319" transform="translate(148,24)"/>
<path d="M0 0 C0.33 0.66 0.66 1.32 1 2 C0.01 2.33 -0.98 2.66 -2 3 C-2.33 3.66 -2.66 4.32 -3 5 C-4.98 4.34 -6.96 3.68 -9 3 C-9 2.67 -9 2.34 -9 2 C-6.03 1.34 -3.06 0.68 0 0 Z " fill="#011818" transform="translate(293,51)"/>
<path d="M0 0 C0.33 0 0.66 0 1 0 C1.33 1.98 1.66 3.96 2 6 C0.02 6 -1.96 6 -4 6 C-2.69593116 3.98079663 -1.36176581 1.98075027 0 0 Z " fill="#2FC0B6" transform="translate(57,46)"/>
<path d="M0 0 C2.97 1.98 2.97 1.98 6 4 C5.67 4.66 5.34 5.32 5 6 C3.68 5.67 2.36 5.34 1 5 C0.67 3.35 0.34 1.7 0 0 Z " fill="#2BCACC" transform="translate(25,33)"/>
<path d="M0 0 C0.99 0.33 1.98 0.66 3 1 C3.33 3.64 3.66 6.28 4 9 C2 6 2 6 1.5 3.875 C1.335 3.25625 1.17 2.6375 1 2 C0.34 1.67 -0.32 1.34 -1 1 C-0.67 0.67 -0.34 0.34 0 0 Z " fill="#002022" transform="translate(204,25)"/>
</svg>
